<svg width="32" height="32" viewBox="0 0 32 32" fill="none" xmlns="http://www.w3.org/2000/svg">
<circle cx="16" cy="16" r="16" fill="white"/>
<path d="M23.8363 18.2075H8.09023C7.76033 18.2075 7.49093 18.4925 7.52118 18.8288C7.86693 22.8241 11.5146 25.9689 15.9633 25.9689C20.4119 25.9689 24.0596 22.8255 24.4053 18.8288C24.4341 18.4925 24.1662 18.2075 23.8363 18.2075Z" fill="#FF6633"/>
<path d="M13.1705 12.431C12.9955 12.431 12.8216 12.3523 12.7081 12.2014C12.1355 11.4465 11.0475 10.9766 9.86937 10.9766C8.69124 10.9766 7.60325 11.4455 7.03062 12.2014C6.83657 12.4576 6.47178 12.5065 6.21728 12.3119C5.96172 12.1174 5.91294 11.7517 6.107 11.4965C6.90655 10.4419 8.31267 9.8125 9.86937 9.8125C11.4261 9.8125 12.8322 10.4419 13.6328 11.4965C13.8269 11.7527 13.777 12.1174 13.5225 12.3119C13.4165 12.3927 13.2935 12.431 13.1705 12.431Z" fill="#414141"/>
<path d="M25.431 12.431C25.256 12.431 25.0821 12.3523 24.9686 12.2014C24.396 11.4465 23.308 10.9766 22.1299 10.9766C20.9517 10.9766 19.8637 11.4455 19.2911 12.2014C19.0971 12.4576 18.7323 12.5065 18.4778 12.3119C18.2222 12.1174 18.1734 11.7517 18.3675 11.4965C19.1671 10.4419 20.5732 9.8125 22.1299 9.8125C23.6866 9.8125 25.0927 10.4419 25.8933 11.4965C26.0874 11.7527 26.0375 12.1174 25.783 12.3119C25.677 12.3927 25.554 12.431 25.431 12.431Z" fill="#414141"/>
</svg>
